<svg xmlns="http://www.w3.org/2000/svg" version="1.1" xmlns:xlink="http://www.w3.org/1999/xlink" xmlns:svgjs="http://svgjs.com/svgjs" width="1440" height="250" preserveAspectRatio="none" viewBox="0 0 1440 250"><g mask="url(&quot;#SvgjsMask1057&quot;)" fill="none"><rect width="1440" height="250" x="0" y="0" fill="rgba(255, 255, 255, 1)"></rect><path d="M10 250L260 0L477.5 0L227.5 250z" fill="url(#SvgjsLinearGradient1058)"></path><path d="M266.6 250L516.6 0L567.6 0L317.6 250z" fill="url(#SvgjsLinearGradient1058)"></path><path d="M478.20000000000005 250L728.2 0L876.7 0L626.7 250z" fill="url(#SvgjsLinearGradient1058)"></path><path d="M754.8000000000001 250L1004.8000000000001 0L1220.8000000000002 0L970.8000000000001 250z" fill="url(#SvgjsLinearGradient1058)"></path><path d="M1426 250L1176 0L943.5 0L1193.5 250z" fill="url(#SvgjsLinearGradient1059)"></path><path d="M1185.4 250L935.4000000000001 0L620.4000000000001 0L870.4000000000001 250z" fill="url(#SvgjsLinearGradient1059)"></path><path d="M940.8 250L690.8 0L566.3 0L816.3 250z" fill="url(#SvgjsLinearGradient1059)"></path><path d="M687.1999999999999 250L437.19999999999993 0L354.69999999999993 0L604.6999999999999 250z" fill="url(#SvgjsLinearGradient1059)"></path><path d="M1232.652034190675 250L1440 42.65203419067504L1440 250z" fill="url(#SvgjsLinearGradient1058)"></path><path d="M0 250L207.34796580932496 250L 0 42.65203419067504z" fill="url(#SvgjsLinearGradient1059)"></path></g><defs><mask id="SvgjsMask1057"><rect width="1440" height="250" fill="#ffffff"></rect></mask><linearGradient x1="0%" y1="100%" x2="100%" y2="0%" id="SvgjsLinearGradient1058"><stop stop-color="rgba(212, 236, 255, 1)" offset="0"></stop><stop stop-opacity="0" stop-color="rgba(212, 236, 255, 1)" offset="0.66"></stop></linearGradient><linearGradient x1="100%" y1="100%" x2="0%" y2="0%" id="SvgjsLinearGradient1059"><stop stop-color="rgba(212, 236, 255, 1)" offset="0"></stop><stop stop-opacity="0" stop-color="rgba(212, 236, 255, 1)" offset="0.66"></stop></linearGradient></defs></svg>